<svg width="41" height="32" xmlns="http://www.w3.org/2000/svg" xmlns:xlink="http://www.w3.org/1999/xlink"><defs><path d="M.013.087v2.235h2.39c.086 0 .212-.012.259-.02.495-.085.916-.491.916-1.097S3.157.192 2.662.108a2.014 2.014 0 00-.26-.02H.012z" id="jcb-logo-i"/><path id="jcb-logo-a" d="M0 .043h40.987V31.87H0z"/><path d="M4.65.112C2.135.112.096 2.167.096 4.702v6.01c1.154-.998 3.15-1.621 6.392-1.474 1.735.078 3.575.547 3.575.547v1.944c-.92-.47-2.025-.907-3.449-1.015-2.46-.188-3.94 1.024-3.94 3.17 0 2.145 1.48 3.356 3.94 3.168 1.424-.107 2.543-.555 3.45-1.013v1.942s-1.841.47-3.576.549c-3.243.147-5.238-.477-6.392-1.475v10.6h6.68c2.515 0 4.554-2.055 4.554-4.59V.112H4.65z" id="jcb-logo-o"/><path d="M4.654.112C2.14.112.1 2.167.1 4.702V9.47h6.444c.15 0 .332.01.446.017 1.459.073 2.534.829 2.534 2.14 0 1.03-.735 1.91-2.073 2.108v.051c1.478.104 2.61.924 2.61 2.215 0 1.398-1.242 2.296-2.898 2.296H.1v9.358h6.68c2.515 0 4.554-2.055 4.554-4.59V.112h-6.68z" id="jcb-logo-f"/><path d="M4.646.112C2.131.112.092 2.167.092 4.702V16.04c1.277.624 2.597 1.03 3.94 1.03 1.575 0 2.44-.969 2.44-2.273V9.47h3.916v5.326c0 2.083-1.268 3.754-5.621 3.754-2.62 0-4.675-.57-4.675-.57v9.675h6.68c2.515 0 4.554-2.055 4.554-4.59V.112h-6.68z" id="jcb-logo-l"/><path d="M.013.062v2.42h2.636c.083 0 .24-.013.314-.03.506-.11.928-.562.928-1.18a1.19 1.19 0 00-.928-1.18 1.942 1.942 0 00-.314-.03H.013z" id="jcb-logo-c"/><linearGradient x1="-62.424%" y1="50.002%" x2="253.404%" y2="50.002%" id="jcb-logo-j"><stop stop-color="#62BA46" offset="0%"/><stop stop-color="#007E49" offset="100%"/></linearGradient><linearGradient x1="0%" y1="50%" x2="100.261%" y2="50%" id="jcb-logo-g"><stop stop-color="#62BA46" offset="0%"/><stop stop-color="#007E49" offset="100%"/></linearGradient><linearGradient x1="-.129%" y1="50%" x2="101.679%" y2="50%" id="jcb-logo-m"><stop stop-color="#0077BF" offset="0%"/><stop stop-color="#333375" offset="100%"/></linearGradient><linearGradient x1="-57.397%" y1="49.999%" x2="233.023%" y2="49.999%" id="jcb-logo-d"><stop stop-color="#62BA46" offset="0%"/><stop stop-color="#007E49" offset="100%"/></linearGradient><linearGradient x1="-.6%" y1="50%" x2="98.279%" y2="50%" id="jcb-logo-p"><stop stop-color="#ED1746" offset="0%"/><stop stop-color="#743136" offset="100%"/></linearGradient></defs><g fill="none" fill-rule="evenodd"><g transform="translate(0 .087)"><mask id="jcb-logo-b" fill="#fff"><use xlink:href="#jcb-logo-a"/></mask><path d="M40.987 25.444c0 3.549-2.855 6.426-6.376 6.426H.001V6.47C0 2.92 2.854.042 6.375.042h34.61v25.4z" fill="#FFF" mask="url(#jcb-logo-b)"/></g><g transform="translate(29.69 16.54)"><mask id="jcb-logo-e" fill="#fff"><use xlink:href="#jcb-logo-c"/></mask><path d="M.013.062v2.42h2.636c.083 0 .24-.013.314-.03.506-.11.928-.562.928-1.18a1.19 1.19 0 00-.928-1.18 1.942 1.942 0 00-.314-.03H.013z" fill="url(#jcb-logo-d)" mask="url(#jcb-logo-e)"/></g><g transform="translate(27.376 2.16)"><mask id="jcb-logo-h" fill="#fff"><use xlink:href="#jcb-logo-f"/></mask><path d="M4.654.112C2.14.112.1 2.167.1 4.702V9.47h6.444c.15 0 .332.01.446.017 1.459.073 2.534.829 2.534 2.14 0 1.03-.735 1.91-2.073 2.108v.051c1.478.104 2.61.924 2.61 2.215 0 1.398-1.242 2.296-2.898 2.296H.1v9.358h6.68c2.515 0 4.554-2.055 4.554-4.59V.112h-6.68z" fill="url(#jcb-logo-g)" mask="url(#jcb-logo-h)"/></g><g transform="translate(29.69 12.913)"><mask id="jcb-logo-k" fill="#fff"><use xlink:href="#jcb-logo-i"/></mask><path d="M.013.087v2.235h2.39c.086 0 .212-.012.259-.02.495-.085.916-.491.916-1.097S3.157.192 2.662.108a2.014 2.014 0 00-.26-.02H.012z" fill="url(#jcb-logo-j)" mask="url(#jcb-logo-k)"/></g><g transform="translate(2.185 2.16)"><mask id="jcb-logo-n" fill="#fff"><use xlink:href="#jcb-logo-l"/></mask><path d="M4.646.112C2.131.112.092 2.167.092 4.702V16.04c1.277.624 2.597 1.03 3.94 1.03 1.575 0 2.44-.969 2.44-2.273V9.47h3.916v5.326c0 2.083-1.268 3.754-5.621 3.754-2.62 0-4.675-.57-4.675-.57v9.675h6.68c2.515 0 4.554-2.055 4.554-4.59V.112h-6.68z" fill="url(#jcb-logo-m)" mask="url(#jcb-logo-n)"/></g><g transform="translate(14.78 2.16)"><mask id="jcb-logo-q" fill="#fff"><use xlink:href="#jcb-logo-o"/></mask><path d="M4.65.112C2.135.112.096 2.167.096 4.702v6.01c1.154-.998 3.15-1.621 6.392-1.474 1.735.078 3.575.547 3.575.547v1.944c-.92-.47-2.025-.907-3.449-1.015-2.46-.188-3.94 1.024-3.94 3.17 0 2.145 1.48 3.356 3.94 3.168 1.424-.107 2.543-.555 3.45-1.013v1.942s-1.841.47-3.576.549c-3.243.147-5.238-.477-6.392-1.475v10.6h6.68c2.515 0 4.554-2.055 4.554-4.59V.112H4.65z" fill="url(#jcb-logo-p)" mask="url(#jcb-logo-q)"/></g></g></svg>