<svg xmlns="http://www.w3.org/2000/svg" width="59" height="36" xmlns:xlink="http://www.w3.org/1999/xlink"><defs><path id="mastercard-a" d="M0 35.395h58.936V.009H0z"/></defs><g fill="none" fill-rule="evenodd"><mask id="mastercard-b" fill="#fff"><use xlink:href="#mastercard-a"/></mask><path fill="#F1AC3D" mask="url(#mastercard-b)" d="M41.266 35.4l.91-.024.899-.065.88-.114.875-.155.851-.197.839-.239.821-.28.803-.317.785-.358.762-.388.738-.43.719-.459.691-.496.666-.525.643-.555.612-.591.589-.615.554-.644.523-.669.494-.692.458-.723.429-.74.386-.764.357-.788.316-.806.279-.823.238-.842.196-.854.155-.877.113-.883.066-.902.023-.913-.023-.907-.066-.896-.113-.883-.155-.866-.196-.853-.238-.836-.279-.824-.316-.799-.357-.782-.386-.764-.429-.735-.458-.722-.494-.692-.523-.663-.554-.645-.589-.614-.612-.585-.643-.555-.666-.526-.691-.495-.719-.46-.738-.424-.762-.388-.785-.358-.803-.316-.821-.281-.839-.238-.851-.197-.875-.156-.88-.113-.899-.066-.91-.024-.904.024-.899.066-.88.113-.869.156-.85.197-.839.238-.815.281-.804.316-.779.358-.756.388-.737.424-.714.46-.691.495-.666.526-.636.555-.613.585-.583.614-.554.645-.523.663-.488.692-.458.722-.423.735-.392.764-.351.782-.316.799-.273.824-.238.836-.197.853-.154.866-.113.883-.066.896-.024.907.024.913.066.902.113.883.154.877.197.854.238.842.273.823.316.806.351.788.392.764.423.74.458.723.488.692.523.669.554.644.583.615.613.591.636.555.666.525.691.496.714.459.737.43.756.388.779.358.804.317.815.28.839.239.85.197.869.155.88.114.899.065.904.024"/><path fill="#D82331" mask="url(#mastercard-b)" d="M17.67 35.4l.905-.024.898-.065.88-.114.869-.155.851-.197.839-.239.815-.28.803-.317.779-.358.756-.388.738-.43.714-.459.69-.496.666-.525.637-.555.613-.591.583-.615.553-.644.524-.669.487-.692.459-.723.422-.74.393-.764.351-.788.315-.806.274-.823.238-.842.196-.854.155-.877.113-.883.065-.902.024-.913-.024-.907-.065-.896-.113-.883-.155-.866-.196-.853-.238-.836-.274-.824-.315-.799-.351-.782-.393-.764-.422-.735-.459-.722-.487-.692-.524-.663-.553-.645-.583-.614-.613-.585-.637-.555-.666-.526-.69-.495-.714-.46-.738-.424-.756-.388-.779-.358-.803-.316-.815-.281-.839-.238-.851-.197-.869-.156-.88-.113-.898-.066-.905-.024-.91.024-.899.066-.88.113-.875.156-.85.197-.839.238-.821.281-.804.316-.785.358-.761.388-.738.424-.72.46-.69.495-.667.526-.642.555-.613.585-.589.614-.553.645-.524.663-.494.692-.458.722-.428.735-.387.764-.357.782-.315.799-.28.824-.238.836-.196.853-.155.866-.113.883-.065.896-.024.907.024.913.065.902.113.883.155.877.196.854.238.842.28.823.315.806.357.788.387.764.428.74.458.723.494.692.524.669.553.644.589.615.613.591.642.555.667.525.69.496.72.459.738.43.761.388.785.358.804.317.821.28.839.239.85.197.875.155.88.114.899.065.91.024"/><path fill="#F1AC3D" d="M27.404 6.796h9.37v-.961h-8.561l-.809.961M26 8.933h10.774v-.961H26.565L26 8.933M24.952 11.064h11.822v-.961H25.369l-.417.961M24.233 13.201h12.541v-.961H24.53l-.297.961M24.649 23.528h12.155v-.961H24.352l.297.961M25.547 25.665h11.257v-.961H25.101l.446.961M26.809 27.796h9.995v-.961H26.208l.601.961M28.546 29.932h8.258v-.967h-9.097l.839.967M23.81 15.332h12.964v-.961H23.995l-.185.961M31.711 21.397h4.944v-.961H31.89l-.179.961M32.104 19.266h4.551v-.967h-4.373l-.178.967M23.483 18.299h1.285v.967h-1.226l-.059-.967"/><path fill="#FFF" d="M21.085 17.135l-.083-.006-.083-.012-.078-.012-.077-.012-.071-.012-.155-.024-.083-.012-.084-.012-.095-.006-.107-.006-.113-.006h-.125l-.137.006-.155.012-.172.012-.119.018-.113.018-.101.036-.089.036-.084.041-.077.048-.113.114-.036.065-.03.066-.012.072v.071l.018.078.024.077.048.078.059.078.119.113.143.09.167.077.178.066.19.059.197.066.196.072.191.077.178.102.167.125.148.149.125.185.095.227.06.269.024.322-.024.376-.042.281-.071.245-.095.226-.119.197-.137.173-.155.15-.166.131-.185.113-.19.09-.197.078-.202.059-.208.048-.202.036-.197.018-.196.012-.184.006h-.256l-.238-.006h-.208l-.197-.006-.178-.006-.161-.012-.143-.012-.137-.018-.125-.012-.113-.024-.113-.018-.101-.03-.101-.023-.19-.072-.101-.036.267-1.319.054.012.065.018.084.024.101.023.107.024.119.024.131.03.143.024.148.024.155.024.161.018.166.018.173.006.172.005h.173l.172-.005.173-.036.137-.048.107-.066.083-.083.06-.084.047-.095.03-.096.024-.089.012-.174-.054-.149-.101-.119-.149-.102-.178-.089-.209-.09-.232-.083-.232-.096-.238-.107-.226-.126-.208-.155-.19-.185-.149-.227-.107-.268-.054-.323.006-.382.03-.232.042-.221.059-.203.072-.191.095-.179.107-.155.125-.15.149-.131.172-.113.19-.096.215-.089.238-.066.267-.054.292-.042.321-.023.351-.006h.22l.203.006.184.005.167.006.148.012.137.012.119.012.107.012.101.012.084.018.077.012.071.012.06.012.054.006.053.012.048.006-.304 1.349"/><path stroke="#FFF" stroke-width=".215" d="M21.085 17.135h0l-.083-.006-.083-.012-.078-.012-.077-.012-.071-.012-.155-.024-.083-.012-.084-.012-.095-.006-.107-.006-.113-.006h-.125l-.137.006-.155.012-.172.012-.119.018-.113.018-.101.036-.089.036-.084.041-.077.048-.113.114-.036.065-.03.066-.012.072v.071l.018.078.024.077.048.078.059.078.119.113.143.09.167.077.178.066.19.059.197.066.196.072.191.077.178.102.167.125.148.149.125.185.095.227.06.269.024.322-.024.376-.042.281-.071.245-.095.226-.119.197-.137.173-.155.15-.166.131-.185.113-.19.09-.197.078-.202.059-.208.048-.202.036-.197.018-.196.012-.184.006h-.256l-.238-.006h-.208l-.197-.006-.178-.006-.161-.012-.143-.012-.137-.018-.125-.012-.113-.024-.113-.018-.101-.03-.101-.023-.19-.072-.101-.036.267-1.319.054.012.065.018.084.024.101.023.107.024.119.024.131.03.143.024.148.024.155.024.161.018.166.018.173.006.172.005h.173l.172-.005.173-.036.137-.048.107-.066.083-.083.06-.084.047-.095.03-.096.024-.089.012-.174-.054-.149-.101-.119-.149-.102-.178-.089-.209-.09-.232-.083-.232-.096-.238-.107-.226-.126-.208-.155-.19-.185-.149-.227-.107-.268-.054-.323.006-.382.03-.232.042-.221.059-.203.072-.191.095-.179.107-.155.125-.15.149-.131.172-.113.19-.096.215-.089.238-.066.267-.054.292-.042.321-.023.351-.006h.22l.203.006.184.005.167.006.148.012.137.012.119.012.107.012.101.012.084.018.077.012.071.012.06.012.054.006.053.012.048.006-.304 1.349"/><path fill="#FFF" d="M22.495 14.311h1.648l-.244 1.445h.994l-.214 1.349-1.047-.03-.572 3.331-.005.119.029.102.06.077.077.066.107.042.119.036.131.023.143.012.131-.006.119-.012.107-.017.095-.024.077-.024.09-.03.012-.006-.209 1.11-.041.03-.042.024-.042.024-.041.024-.042.018-.047.018-.054.017-.054.018-.059.018-.06.012-.071.012-.071.012-.078.012-.089.012-.095.012-.101.012h-.452l-.238-.018-.209-.024-.19-.036-.161-.042-.137-.053-.113-.06-.101-.072-.077-.077-.06-.084-.041-.101-.03-.102-.018-.113-.006-.126v-.131l.018-.137.018-.149 1.136-6.513"/><path stroke="#FFF" stroke-width=".215" d="M22.495 14.311h1.648l-.244 1.445h.994l-.214 1.349-1.047-.03-.572 3.331-.005.119.029.102.06.077.077.066.107.042.119.036.131.023.143.012.131-.006.119-.012.107-.017.095-.024.077-.024.09-.03.012-.006-.209 1.11-.041.03-.042.024-.042.024-.041.024-.042.018-.047.018-.054.017-.054.018-.059.018-.06.012-.071.012-.071.012-.078.012-.089.012-.095.012-.101.012h-.452l-.238-.018-.209-.024-.19-.036-.161-.042-.137-.053-.113-.06-.101-.072-.077-.077-.06-.084-.041-.101-.03-.102-.018-.113-.006-.126v-.131l.018-.137.018-.149 1.136-6.513"/><path fill="#FFF" d="M26.208 19.355l-.018.102-.006.107.012.114.024.113.041.113.048.108.065.113.072.102.083.101.089.09.096.089.107.072.107.066.119.053.119.042.119.024.154.024.149.018.155.018.154.012.155.006h.161l.155-.006.16-.012.161-.024.16-.03.167-.036.161-.054.166-.065.173-.072.166-.095.173-.102-.238 1.469-.19.095-.096.036-.089.036-.089.03-.095.029-.095.024-.102.018-.107.018-.119.012-.125.012-.137.012-.154.006h-.161l-.184.006h-.197l-.291-.006-.298-.03-.297-.042-.298-.071-.291-.09-.28-.113-.267-.15-.25-.173-.232-.203-.203-.244-.172-.275-.143-.316-.101-.353-.066-.399-.017-.442.029-.49.024-.191.036-.22.047-.233.066-.251.089-.257.107-.256.137-.263.167-.251.19-.238.232-.227.262-.203.297-.179.345-.15.387-.107.428-.072.482-.023.232.006.244.023.244.042.244.06.238.089.232.108.214.143.197.167.178.203.149.239.119.275.083.316.048.358.006.406-.042.454-.089.501-.03.364h-4.337L26 18.209h2.605l.012-.149-.006-.143-.011-.132-.024-.119-.042-.113-.042-.102-.059-.089-.06-.084-.071-.072-.077-.059-.09-.054-.089-.048-.095-.036-.095-.023-.101-.018-.107-.012-.113.006-.108.018-.101.023-.101.036-.101.048-.089.054-.089.065-.078.072-.077.084-.072.089-.065.096-.054.101-.053.108-.042.119-.035.119-.024.126-.238 1.235"/><path stroke="#FFF" stroke-width=".215" d="M26.208 19.355h0l-.018.102-.006.107.012.114.024.113.041.113.048.108.065.113.072.102.083.101.089.09.096.089.107.072.107.066.119.053.119.042.119.024.154.024.149.018.155.018.154.012.155.006h.161l.155-.006.16-.012.161-.024.16-.03.167-.036.161-.054.166-.065.173-.072.166-.095.173-.102-.238 1.469-.19.095-.096.036-.089.036-.089.03-.095.029-.095.024-.102.018-.107.018-.119.012-.125.012-.137.012-.154.006h-.161l-.184.006h-.197l-.291-.006-.298-.03-.297-.042-.298-.071-.291-.09-.28-.113-.267-.15-.25-.173-.232-.203-.203-.244-.172-.275-.143-.316-.101-.353-.066-.399-.017-.442.029-.49.024-.191.036-.22.047-.233.066-.251.089-.257.107-.256.137-.263.167-.251.19-.238.232-.227.262-.203.297-.179.345-.15.387-.107.428-.072.482-.023.232.006.244.023.244.042.244.06.238.089.232.108.214.143.197.167.178.203.149.239.119.275.083.316.048.358.006.406-.042.454-.089.501-.03.364h-4.337L26 18.209h2.605l.012-.149-.006-.143-.011-.132-.024-.119-.042-.113-.042-.102-.059-.089-.06-.084-.071-.072-.077-.059-.09-.054-.089-.048-.095-.036-.095-.023-.101-.018-.107-.012-.113.006-.108.018-.101.023-.101.036-.101.048-.089.054-.089.065-.078.072-.077.084-.072.089-.065.096-.054.101-.053.108-.042.119-.035.119-.024.126-.238 1.235"/><path fill="#FFF" d="M40.398 16.114l-.078-.042-.077-.036-.083-.041-.09-.042-.089-.036-.202-.072-.107-.035-.113-.03-.113-.024-.125-.024-.125-.018-.137-.012-.137-.012h-.44l-.155.012-.161.018-.166.03-.167.048-.166.065-.167.084-.166.107-.161.132-.155.155-.149.191-.142.221-.131.262-.125.299-.113.334-.095.382-.036.215-.024.209-.012.209.006.203.018.203.042.191.053.179.066.179.089.161.107.155.125.138.143.125.16.107.185.09.202.077.226.054.078.018.089.018.107.012.119.012.131.012h.285l.149-.012.155-.018.154-.03.149-.042.149-.047.149-.066.136-.078.125-.095.119-.108-.267 1.594-.036.03-.036.036-.047.042-.054.035-.065.048-.084.042-.095.042-.107.036-.137.041-.154.03-.179.024-.208.024-.232.012-.268.006-.303-.006-.334-.018-.273-.03-.274-.06-.274-.089-.273-.12-.262-.143-.25-.179-.238-.209-.22-.239-.196-.268-.167-.299-.143-.334-.107-.364-.071-.4-.024-.424.012-.465.065-.496.048-.244.053-.239.06-.233.059-.221.066-.209.077-.209.078-.197.083-.185.089-.185.089-.173.102-.167.107-.155.107-.149.119-.144.119-.131.125-.125.136-.12.137-.113.143-.102.149-.095.16-.09.161-.077.167-.072.172-.066.185-.059.184-.048.191-.042.202-.036.202-.03.214-.023.214-.012.227-.006.19.006.184.012.179.018.178.023.167.024.161.036.154.03.143.036.137.036.119.035.113.036.095.036.083.03.072.024.053.024.036.012-.297 1.653"/><path stroke="#FFF" stroke-width=".215" d="M40.398 16.114h0l-.078-.042-.077-.036-.083-.041-.09-.042-.089-.036-.202-.072-.107-.035-.113-.03-.113-.024-.125-.024-.125-.018-.137-.012-.137-.012h-.44l-.155.012-.161.018-.166.03-.167.048-.166.065-.167.084-.166.107-.161.132-.155.155-.149.191-.142.221-.131.262-.125.299-.113.334-.095.382-.036.215-.024.209-.012.209.006.203.018.203.042.191.053.179.066.179.089.161.107.155.125.138.143.125.16.107.185.09.202.077.226.054.078.018.089.018.107.012.119.012.131.012h.285l.149-.012.155-.018.154-.03.149-.042.149-.047.149-.066.136-.078.125-.095.119-.108-.267 1.594-.036.03-.036.036-.047.042-.054.035-.065.048-.084.042-.095.042-.107.036-.137.041-.154.03-.179.024-.208.024-.232.012-.268.006-.303-.006-.334-.018-.273-.03-.274-.06-.274-.089-.273-.12-.262-.143-.25-.179-.238-.209-.22-.239-.196-.268-.167-.299-.143-.334-.107-.364-.071-.4-.024-.424.012-.465.065-.496.048-.244.053-.239.06-.233.059-.221.066-.209.077-.209.078-.197.083-.185.089-.185.089-.173.102-.167.107-.155.107-.149.119-.144.119-.131.125-.125.136-.12.137-.113.143-.102.149-.095.16-.09.161-.077.167-.072.172-.066.185-.059.184-.048.191-.042.202-.036.202-.03.214-.023.214-.012.227-.006.19.006.184.012.179.018.178.023.167.024.161.036.154.03.143.036.137.036.119.035.113.036.095.036.083.03.072.024.053.024.036.012-.297 1.653"/><path fill="#FFF" d="M55.045 22.149h-1.648l.119-.663v-.059l-.095.119-.101.107-.101.096-.107.083-.107.078-.107.066-.107.053-.114.054-.113.042-.113.03-.113.03-.119.018-.119.017-.113.012-.119.006h-.119l-.309-.024-.286-.065-.261-.102-.238-.137-.215-.173-.19-.203-.167-.221-.142-.251-.119-.268-.095-.281-.066-.292-.048-.305-.017-.304.006-.31.029-.305.054-.304.089-.352.107-.335.125-.304.149-.287.155-.268.178-.239.184-.215.197-.197.208-.173.22-.149.226-.132.226-.101.238-.084.238-.053.238-.036.244-.012.173.006.166.018.155.03.143.041.137.048.119.054.119.066.107.065.095.072.089.077.078.078.071.078.059.077.054.078.048.071.035.072.417-2.346h1.618l-1.345 7.808"/><path stroke="#FFF" stroke-width=".215" d="M55.045 22.149h-1.648l.119-.663v-.059l-.095.119-.101.107-.101.096-.107.083-.107.078-.107.066-.107.053-.114.054-.113.042-.113.03-.113.03-.119.018-.119.017-.113.012-.119.006h-.119l-.309-.024-.286-.065-.261-.102-.238-.137-.215-.173-.19-.203-.167-.221-.142-.251-.119-.268-.095-.281-.066-.292-.048-.305-.017-.304.006-.31.029-.305.054-.304.089-.352.107-.335.125-.304.149-.287.155-.268.178-.239.184-.215.197-.197.208-.173.22-.149.226-.132.226-.101.238-.084.238-.053.238-.036.244-.012.173.006.166.018.155.03.143.041.137.048.119.054.119.066.107.065.095.072.089.077.078.078.071.078.059.077.054.078.048.071.035.072.417-2.346h1.618l-1.345 7.808"/><path fill="#F1AC3D" d="M52.35 20.704l.167-.012.155-.035.142-.042.137-.066.125-.072.119-.089.113-.102.101-.107.09-.119.083-.132.077-.137.066-.143.059-.149.048-.156.041-.161.03-.161.03-.167.018-.173v-.161l-.006-.168-.018-.155-.024-.149-.042-.143-.047-.138-.06-.119-.071-.113-.077-.096-.09-.083-.101-.072-.107-.048-.113-.03-.125-.012-.16.012-.149.024-.137.048-.137.06-.119.077-.119.096-.101.101-.101.114-.089.131-.084.137-.077.144-.065.155-.06.161-.048.161-.047.173-.036.173-.03.263.012.286.042.293.077.28.119.245.155.197.196.132.238.047"/><path fill="#FFF" d="M15.814 20.824l-.238 1.325h-1.499l.041-.245.03-.221.024-.167.024-.089-.084.095-.095.096-.113.089-.125.084-.143.083-.148.072-.155.071-.161.06-.172.054-.173.042-.172.035-.179.024-.172.012-.173.006-.166-.018-.161-.024-.208-.053-.191-.06-.166-.078-.149-.089-.131-.096-.119-.107-.095-.113-.083-.12-.072-.125-.059-.132-.048-.131-.036-.131-.023-.137-.018-.138-.012-.131v-.131l.018-.233.035-.221.06-.209.077-.203.095-.191.108-.173.124-.167.143-.149.149-.138.167-.125.172-.113.179-.096.19-.083.196-.066.203-.054.208-.036h.012l.029-.006.042-.006.066-.006.071-.011.083-.006.09-.012.303-.036.107-.006.095-.012.095-.006.09-.006.083-.006h.202l.143.006.131.006h.131l.107.006.083.006.06.006h.018l.011-.042.036-.107.03-.126.012-.113-.024-.131-.054-.12-.071-.107-.095-.09-.113-.077-.125-.054-.143-.036-.155-.012-.166-.006-.179-.006h-.184l-.191.006-.196.012-.381.036-.184.024-.179.024-.172.029-.155.03-.142.03-.131.036-.108.036-.083.042-.065.035.422-1.438.131-.054.131-.048.143-.041.285-.06.155-.024.155-.024.16-.012.167-.012.172-.006.179-.006h.571l.208.006.209.006.166.012.179.03.184.042.19.054.185.071.178.084.179.101.166.114.149.131.131.143.119.161.089.179.06.191.036.203v.227l-.036.239-.601 3.152"/><path stroke="#FFF" stroke-width=".215" d="M15.814 20.824l-.238 1.325h-1.499l.041-.245.03-.221.024-.167.024-.089-.084.095-.095.096-.113.089-.125.084-.143.083-.148.072-.155.071-.161.06-.172.054-.173.042-.172.035-.179.024-.172.012-.173.006-.166-.018-.161-.024-.208-.053-.191-.06-.166-.078-.149-.089-.131-.096-.119-.107-.095-.113-.083-.12-.072-.125-.059-.132-.048-.131-.036-.131-.023-.137-.018-.138-.012-.131v-.131l.018-.233.035-.221.06-.209.077-.203.095-.191.108-.173.124-.167.143-.149.149-.138.167-.125.172-.113.179-.096.19-.083.196-.066.203-.054.208-.036h.012l.029-.006.042-.006.066-.006.071-.011.083-.006.09-.012.303-.036.107-.006.095-.012.095-.006.09-.006.083-.006h.202l.143.006.131.006h.131l.107.006.083.006.06.006h.018l.011-.042.036-.107.03-.126.012-.113-.024-.131-.054-.12-.071-.107-.095-.09-.113-.077-.125-.054-.143-.036-.155-.012-.166-.006-.179-.006h-.184l-.191.006-.196.012-.381.036-.184.024-.179.024-.172.029-.155.03-.142.03-.131.036-.108.036-.083.042-.065.035.422-1.438.131-.054.131-.048.143-.041.285-.06.155-.024.155-.024.16-.012.167-.012.172-.006.179-.006h.571l.208.006.209.006.166.012.179.03.184.042.19.054.185.071.178.084.179.101.166.114.149.131.131.143.119.161.089.179.06.191.036.203v.227l-.036.239-.601 3.152"/><path fill="#D82331" d="M14.38 19.266l-.006-.03-.024-.03-.035-.018-.06-.012-.065-.012-.078-.006h-.178l-.095.006-.102.012-.095.012-.095.012-.089.012-.083.018-.072.018-.065.018-.042.012-.048.018-.065.023-.065.03-.078.036-.077.042-.083.042-.078.047-.083.06-.077.06-.072.071-.065.072-.06.078-.041.083-.036.096-.018.095-.006.203.03.161.059.12.078.089.089.06.101.036.095.018.096.006.178-.006.161-.018.154-.024.137-.036.119-.042.113-.053.101-.054.09-.066.077-.059.071-.072.06-.066.047-.071.042-.072.036-.072.03-.065.017-.066.048-.173.042-.197.035-.191.03-.155"/><path fill="#FFF" d="M3.296 22.149H1.678l1.35-7.838h2.814l.268 4.65 1.946-4.65h2.939l-1.381 7.838H7.996l1.023-5.856h-.065l-2.421 5.856H4.706l-.012-.245-.042-.651-.053-.925-.119-2.131-.054-.937-.041-.68-.012-.287h-.089l-.988 5.856"/><path stroke="#FFF" stroke-width=".215" d="M3.296 22.149H1.678l1.35-7.838h2.814l.268 4.65 1.946-4.65h2.939l-1.381 7.838H7.996l1.023-5.856h-.065l-2.421 5.856H4.706l-.012-.245-.042-.651-.053-.925-.119-2.131-.054-.937-.041-.68-.012-.287h-.089l-.988 5.856"/><path fill="#FFF" d="M45.342 20.824l-.244 1.325h-1.494l.012-.245.006-.215v-.161l.012-.072-.077.09-.089.089-.107.084-.12.084-.124.077-.143.072-.149.071-.149.06-.16.048-.167.048-.167.029-.166.024-.173.012-.166.006-.161-.018-.161-.024-.214-.053-.19-.06-.167-.078-.154-.089-.131-.096-.113-.107-.096-.113-.083-.12-.071-.125-.054-.132-.047-.131-.03-.131-.024-.137-.018-.138-.012-.131v-.131l.012-.233.036-.221.053-.209.078-.203.089-.191.113-.173.125-.167.137-.149.155-.138.16-.125.173-.113.184-.096.185-.083.196-.066.196-.054.203-.036h.011l.03-.006.042-.006.059-.006.078-.011.083-.006.089-.012.095-.012.102-.012.107-.012.101-.006.101-.012.095-.006.084-.006.083-.006h.208l.143.006.137.006h.131l.113.006.095.006.053.006h.024l.012-.042.018-.107.018-.126.012-.113-.024-.131-.048-.12-.077-.107-.089-.09-.107-.077-.125-.054-.131-.036-.143-.012-.167-.006-.178-.006h-.185l-.19.006-.196.012-.381.036-.185.024-.178.024-.173.029-.154.03-.143.03-.131.036-.107.036-.083.042-.066.035.417-1.438.131-.054.136-.048.137-.041.143-.03.149-.03.149-.024.154-.024.161-.012.166-.012.173-.006.173-.006h.559l.202.006.202.006.167.012.178.03.185.042.19.054.185.071.184.084.179.101.166.114.149.131.137.143.119.161.089.179.065.191.042.203v.227l-.03.239-.624 3.152"/><path fill="#FFF" d="M45.119 22.191l.056-.036.387-1.325-.113-.012-.387 1.325.057-.036v.084l.047-.006.009-.03-.056.036"/><path fill="#FFF" d="M43.569 22.357l.035.25h1.494v-.5h-1.494l.036.25h-.071l-.006.25h.041l-.035-.25"/><path fill="#FFF" d="M44.069 21.48l-.281-.047-.126.095-.031.161v.215l-.062.245h.375l.062-.245.063-.215-.032-.161v-.048l-.28-.047.312.047M41.349 22.244l.167.024.161.018.166-.006.173-.012.172-.024.167-.03.167-.047.166-.048.149-.06.155-.071.142-.072.25-.167.107-.084.096-.095.077-.09-.06-.047-.077.089-.083.084-.107.083-.113.084-.125.071-.143.072-.143.072-.149.059-.154.048-.167.048-.167.03-.16.024-.173.011-.166.006-.161-.017-.155-.024-.012.071"/><path fill="#FFF" d="M39.91 20.436l.006.131.012.131.017.144.024.137.03.131.048.137.053.138.077.125.084.125.095.114.119.113.137.096.154.095.173.078.196.06.214.053.012-.071-.214-.054-.184-.06-.161-.077-.155-.084-.124-.095-.108-.102-.095-.113-.083-.114-.066-.125-.053-.125-.048-.126-.029-.131-.024-.137-.018-.132-.012-.131.006-.131h-.083M42.046 18.144l-.209.035-.202.054-.196.066-.191.083-.184.096-.179.119-.16.126-.155.143-.143.149-.125.167-.119.179-.089.197-.077.203-.054.215-.035.227-.018.233h.083l.006-.233.036-.215.053-.203.078-.203.089-.185.107-.167.125-.167.131-.149.154-.132.161-.125.167-.108.184-.095.179-.084.196-.065.19-.054.197-.036v-.071M43.271 18.018h-.065l-.083.03-.084.016-.095.015-.101.03-.101.015-.107.031-.102.03-.095.03-.089.03-.083.016-.078.03-.059.015-.048.015-.024.015h-.011v.182h.011l.036-.015.036-.015.059-.015.078-.031.083-.015.089-.03.095-.03.102-.031.107-.03.101-.015.101-.03.095-.016.084-.015h.148v-.212"/><path fill="#FFF" d="M44.074 18.308l.036-.132h-.024l-.053-.026-.095-.027-.113-.052h-.268l-.143-.053h-.143v.369h.286l.137.052h.244l.095.027.053.026h.024l.036-.132-.036.132.03.026.006-.158-.072-.052"/><path fill="#FFF" d="M44.292 17.702h-.022l-.022.144-.065.151-.065.137-.044.053.261.015.044-.053.065-.137.065-.166.065-.144h-.282M43.426 17.111v.006l.137.006.125.036.119.053.101.072.083.084.072.101.047.107.024.126h.071l-.024-.137-.047-.132-.083-.113-.096-.096-.113-.083-.131-.054-.136-.036-.149-.018v.078M40.874 17.478l.059.043.06-.036.077-.051.101-.043.131-.044.143-.036.154-.036.173-.036.172-.029.185-.029.19-.022.191-.022.196-.014h.553l.167.007v-.087l-.167-.007-.178-.015h-.185l-.19.015-.196.014-.191.022-.19.022-.369.058-.173.036-.154.036-.143.036-.131.044-.113.043-.089.051-.072.051.06.043-.071-.014"/><path fill="#FFF" d="M41.325 15.929l-.025.03-.426 1.438.073.012.427-1.438-.025.03-.024-.072-.019.006-.006.024.025-.03"/><path fill="#FFF" d="M43.961 15.661l-.202-.016-.202-.008h-.559l-.173.016-.173.008-.166.017-.161.016-.16.033-.149.032-.149.041-.143.041-.142.058-.137.065-.131.074.024.099.13-.074.137-.066.131-.057.143-.041.149-.041.297-.066.161-.016.166-.017.173-.008h.732l.202.008h.202v-.098M46.002 17.678l.03-.245v-.227l-.042-.209-.065-.197-.095-.185-.119-.167-.143-.149-.149-.131-.173-.114-.178-.107-.19-.084-.185-.071-.196-.054-.185-.042-.184-.03-.167-.012v.072l.167.012.172.03.185.042.184.053.185.072.178.084.179.095.16.113.149.132.131.137.119.155.083.173.066.185.041.197v.227l-.029.233.071.012"/><path fill="#FFF" d="M45.377 20.83l.625-3.152-.071-.012-.625 3.152.071.012"/><path fill="#F1AC3D" d="M43.902 19.266l-.012-.036-.024-.03-.041-.018-.06-.018-.065-.006-.078-.006h-.089l-.089.006-.095.012-.096.012-.095.012-.089.012-.089.018-.078.012-.077.018-.06.012-.041.006-.048.018-.059.018-.066.023-.077.036-.155.078-.154.107-.078.066-.065.066-.066.077-.053.084-.042.089-.036.096-.017.101-.006.203.029.161.048.12.071.089.09.06.101.036.101.018.101.006.179-.006.166-.018.155-.03.137-.042.131-.048.113-.053.107-.06.095-.072.083-.065.072-.078.065-.072.054-.077.041-.072.03-.071.024-.072.018-.066.024-.167.029-.173.024-.167.012-.149"/><path fill="#FFF" d="M56.158 21.331l.012-.137.047-.161.084-.144.101-.125.125-.102.143-.071.154-.048.167-.018.167.018.154.048.143.071.125.102.101.125.083.144.048.161.012.137h-.179l-.006-.107-.035-.132-.06-.119-.077-.102-.095-.083-.113-.06-.131-.042-.137-.012-.137.012-.131.042-.113.06-.095.083-.077.102-.06.119-.036.132-.011.107h-.173"/><path fill="#FFF" d="M56.693 21.473v-.5h.328l.071.008.066.017.047.025.042.033.03.05.023.05.012.059.006.058-.006.075-.012.058-.018.05-.011.017h-.25l.023-.008.042-.009.036-.016.03-.017.023-.025.012-.025.012-.042v-.058l-.006-.042-.012-.033-.035-.033-.03-.009-.03-.008h-.244v.325h-.149"/><path fill="#FFF" d="M56.158 21.331l-.006.036.018.173.047.161.084.143.101.12.125.101.143.078.154.048.167.017.167-.017.154-.048.143-.078.125-.101.101-.12.083-.143.048-.161.018-.173-.006-.036h-.179l.006.036-.012.143-.035.131-.06.114-.077.101-.095.084-.113.066-.131.041-.137.012-.137-.012-.131-.041-.113-.066-.095-.084-.077-.101-.06-.114-.036-.131-.011-.143v-.036h-.173"/><path fill="#FFF" d="M56.693 21.331v.5h.149v-.41h.149l.178.41h.119l-.178-.41h.042l.041-.016.036-.017.03-.032.012-.025h-.25l-.03.008h-.149v-.008h-.149"/><path stroke="#FFF" stroke-width=".215" d="M56.152 21.367h0l.018-.173.047-.161.084-.144.1-.125.126-.102.143-.071.154-.048.167-.018.167.018.154.048.143.071.125.102.101.125.083.144.048.16.018.174-.018.173-.048.161-.083.143-.101.12-.125.101-.143.078-.154.048-.167.017-.167-.017-.154-.048-.143-.078-.125-.101-.101-.12-.084-.143-.047-.161-.018-.173m.69.328h-.149v-.722h.328l.071.006.066.012.047.018.042.024.03.035.023.036.012.042.006.042-.006.053-.012.042-.018.036-.023.03-.03.024-.036.012-.041.012h-.042l.178.298h-.119l-.178-.298h-.149v.298m.149-.358h0l.053-.012.042-.006.036-.012.03-.012.023-.018.012-.018.012-.03v-.041l-.006-.03-.012-.024-.035-.024-.03-.006-.03-.006h-.244v.239h.149m0 .722h0l.137-.012.13-.041.114-.066.095-.084.077-.101.06-.114.035-.13.012-.144-.012-.143-.035-.132-.06-.12-.077-.1-.095-.084-.113-.06-.131-.042-.137-.012-.137.012-.13.042-.114.06-.095.083-.077.102-.06.12-.036.13-.011.144.011.143.036.131.06.114.077.101.095.084.113.066.131.041.137.012"/><path fill="#FFF" d="M45.788 22.149h1.678l.601-3.397.023-.131.072-.263.047-.131.06-.131.071-.126.078-.119.095-.113.107-.102.119-.095.137-.09.154-.072.173-.059.19-.048.209-.036.232-.012h.148l.268-1.534-.167.012-.16.018-.149.03-.143.042-.131.047-.125.06-.119.066-.113.071-.107.084-.101.084-.19.191-.089.101-.09.113-.089.108-.083.119.178-1.08H46.9l-1.112 6.393"/><path stroke="#FFF" stroke-width=".215" d="M45.788 22.149h1.678l.601-3.397.023-.131.072-.263.047-.131.06-.131.071-.126.078-.119.095-.113.107-.102.119-.095.137-.09.154-.072.173-.059.19-.048.209-.036.232-.012h.148l.268-1.534-.167.012-.16.018-.149.03-.143.042-.131.047-.125.06-.119.066-.113.071-.107.084-.101.084-.19.191-.089.101-.09.113-.089.108-.083.119.178-1.08H46.9l-1.112 6.393"/><path fill="#FFF" d="M30.033 22.149h1.708l.571-3.397.024-.131.059-.251.042-.119.048-.119.059-.114.072-.107.083-.102.095-.089.107-.09.131-.071.143-.066.166-.054.185-.048.202-.029.232-.018h.018l.024.006.03.006h.029l.03.006.024.006.018.006h.006l.023-.096.024-.107.03-.132.042-.155.041-.167.107-.334.048-.114.119-.227.059-.101.054-.09.042-.071.029-.042.012-.018h-.006l-.023-.006-.03-.006-.042-.006h-.042l-.047-.006-.042-.006h-.041l-.185.012-.166.018-.155.03-.143.036-.137.047-.125.06-.113.06-.107.072-.101.077-.095.09-.089.089-.179.203-.083.114-.179.238.214-1.08h-1.707l-1.113 6.393"/><path stroke="#FFF" stroke-width=".215" d="M30.033 22.149h1.708l.571-3.397.024-.131.059-.251.042-.119.048-.119.059-.114.072-.107.083-.102.095-.089.107-.09.131-.071.143-.066.166-.054.185-.048.202-.029.232-.018h.018l.024.006.03.006h.029l.03.006.024.006.018.006h.006l.023-.096.024-.107.03-.132.042-.155.041-.167.107-.334.048-.114.119-.227.059-.101.054-.09.042-.071.029-.042.012-.018h-.006l-.023-.006-.03-.006-.042-.006h-.042l-.047-.006-.042-.006h-.041l-.185.012-.166.018-.155.03-.143.036-.137.047-.125.06-.113.06-.107.072-.101.077-.095.09-.089.089-.179.203-.083.114-.179.238.214-1.08h-1.707l-1.113 6.393"/><path fill="#F1AC3D" d="M56.17 28.428v-.024l.047-.155.084-.137.101-.119.125-.096.143-.072.154-.041.167-.018.167.018.154.041.143.072.125.096.101.119.083.137.048.155v.024h-.173l-.035-.125-.06-.113-.077-.102-.095-.084-.113-.065-.131-.042-.137-.012-.137.012-.131.042-.113.065-.095.084-.077.102-.06.113-.036.125h-.172"/><path fill="#F1AC3D" d="M56.693 28.719v-.5h.399l.066.029.047.028.042.058.03.071.023.086.012.1.006.128h-.119v-.071l-.006-.072-.012-.057-.035-.057-.03-.014-.03-.014h-.244v.285h-.149M56.152 28.928l.047-.5h.453v.023l-.031.477h-.469"/><path fill="#F1AC3D" d="M56.693 28.928v-.5h.149v.455h.149l.053-.046.042-.022.036-.046.03-.045.023-.068.012-.069.012-.113v-.046h.119l-.006.159-.012.137-.018.113-.023.091h-.566M57.671 28.928l-.032-.477v-.023h.454l.046.5h-.468"/><path fill="#F1AC3D" d="M56.152 28.56v.017l.018.174.047.161.084.143.101.125.125.102.143.071.154.048.167.018.167-.018.154-.048.143-.071.125-.102.101-.125.083-.143.048-.161.018-.174v-.017h-.179v.017l-.012.144-.035.131-.06.113-.077.102-.095.084-.113.065-.131.042-.137.012-.137-.012-.131-.042-.113-.065-.095-.084-.077-.102-.06-.113-.036-.131-.011-.144v-.017h-.179"/><path fill="#F1AC3D" d="M56.693 28.56v.5h.149v-.431h.149l.178.431h.119l-.178-.431h.042l.041-.018.036-.017.03-.034h-.566"/></g></svg>