<svg xmlns="http://www.w3.org/2000/svg" width="52" height="35"><g fill="none" fill-rule="evenodd"><path fill="#005187" d="M50.979 34.769H.224V.263h51.633v34.506h-.878"/><path fill="#FFF" d="M1.102 33.898h49.877V1.134H1.102z"/><path fill="#005187" d="M19.129 22.837l3.239-10.604h2.89l-3.239 10.604h-2.89m-1.292-10.601l-2.6 4.495c-.662 1.178-1.05 1.772-1.235 2.516h-.04c.046-.943-.086-2.1-.099-2.755l-.287-4.256H8.711l-.05.286c1.25 0 1.991.623 2.195 1.898l.948 8.417H14.8l6.054-10.6h-3.016m22.476 10.6l-.08-1.577-3.609-.003-.738 1.58h-3.138l5.69-10.583h3.852l.963 10.583h-2.94zm-.331-6.255c-.033-.783-.06-1.847-.006-2.49h-.042c-.176.526-.932 2.106-1.264 2.884L37.595 19.3h2.533l-.146-2.718zm-11.69 6.556c-2.04 0-3.394-.642-4.36-1.215l1.376-2.088c.868.482 1.55 1.038 3.117 1.038.504 0 .99-.13 1.266-.604.402-.69-.093-1.06-1.222-1.695l-.557-.36c-1.674-1.136-2.398-2.214-1.61-4.096C26.806 12.913 28.136 12 30.33 12c1.512 0 2.93.65 3.757 1.284l-1.583 1.843c-.806-.648-1.474-.975-2.24-.975-.61 0-1.073.233-1.233.548-.301.593.097.996.977 1.538l.663.419c2.032 1.272 2.516 2.607 2.007 3.854-.876 2.147-2.591 2.626-4.386 2.626m15.821-9.468h-.125v-.756h.29c.183 0 .277.064.277.217 0 .137-.084.194-.199.207l.214.332h-.142l-.197-.323h-.118v.323zm.14-.43c.094 0 .177-.008.177-.118 0-.091-.09-.102-.166-.102h-.151v.22h.14zm-.004.723a.66.66 0 01-.677-.684c0-.41.313-.683.677-.683.361 0 .674.272.674.683a.665.665 0 01-.674.684zm0-1.248c-.298 0-.53.232-.53.564 0 .31.203.565.53.565.295 0 .527-.23.527-.565 0-.332-.232-.564-.527-.564z"/><path fill="#EFA338" d="M2.418 32.417h47.333V26.13H2.418z"/><path fill="#005187" d="M2.33 8.989h47.334V2.702H2.33zM48.582 31.97h-.125v-.756h.289c.184 0 .278.064.278.217 0 .137-.085.194-.199.207l.214.332h-.142l-.197-.323h-.118v.323zm.14-.43c.094 0 .177-.008.177-.118 0-.091-.09-.102-.166-.102h-.15v.22h.139zm-.004.723a.66.66 0 01-.677-.684c0-.41.313-.683.677-.683.361 0 .674.272.674.683a.665.665 0 01-.674.684zm0-1.249c-.298 0-.53.233-.53.565 0 .31.203.565.53.565.295 0 .527-.23.527-.565 0-.332-.232-.565-.527-.565z"/></g></svg>